<svg xmlns="http://www.w3.org/2000/svg" xmlns:xlink="http://www.w3.org/1999/xlink" viewBox="0 0 175.26 127.88"><defs><style>.a{fill:none;}.b{clip-path:url(#a);}.c{opacity:0.2;}.d{clip-path:url(#c);}.e{fill:#39a9db;}</style><clipPath id="a" transform="translate(-497 -503.12)"><rect class="a" x="497" y="503.12" width="175.26" height="127.88"/></clipPath><clipPath id="c" transform="translate(-497 -503.12)"><rect class="a" x="488" y="496.12" width="193.26" height="135.88"/></clipPath></defs><title>quotes</title><g class="b"><g class="b"><g class="c"><g class="d"><path class="e" d="M539.78,631q16.56,0,27.14-9.89t10.58-25.53q0-16.56-10.12-26t-26.22-9.43q-16.56,0-26.68,11a27.44,27.44,0,0,1-1.38-8.74,43.63,43.63,0,0,1,1.38-10.58q1.83-12,11.73-23.46a61.26,61.26,0,0,1,23.23-17l-4.14-8.28q-23.92,11-36.11,30.36a82.69,82.69,0,0,0-9.43,64.4,58,58,0,0,0,7.36,17Q517.23,631,539.78,631m94.76,0q16.56,0,27.14-9.89t10.58-25.53q0-16.56-10.12-26t-26.22-9.43q-16.56,0-26.68,11a27.44,27.44,0,0,1-1.38-8.74,43.63,43.63,0,0,1,1.38-10.58q1.83-12,11.73-23.46a61.26,61.26,0,0,1,23.23-17l-4.14-8.28q-23.92,11-36.11,30.36a82.69,82.69,0,0,0-9.43,64.4,58,58,0,0,0,7.36,17Q612,631,634.54,631" transform="translate(-497 -503.12)"/></g></g></g></g></svg>
